<svg id="Layer_1" data-name="Layer 1" xmlns="http://www.w3.org/2000/svg" viewBox="0 0 50.71 37.39"><defs><style>.cls-1{opacity:0.3;}.cls-2{fill:#bcbec0;}.cls-3{fill:#ffcc21;}</style></defs><title>hands</title><g class="cls-1"><path class="cls-2" d="M37.28,141.6c0.13,3.55,12,.66,11.63,4.1s-10.1.48-12.69,2.15c-4.33,2.8-11.79,7.84-20.63.86-7.46-5.9-3-14-1.52-17,3.61-7.06-1-11,.1-11.81s9.68,0.85,6.16,11.36c0,0,2.91.77,8.85-6.81s9.1-9.4,10.8-8.31c2.45,1.57-7.83,11.43-6.54,13s13.74-8.86,14.83-5.73c1.41,4-12.52,9.19-11.58,11.29s14.35-3.19,14.89.13C52.25,139,37.2,139.09,37.28,141.6Z" transform="translate(-11.4 -115.38)"/></g><path class="cls-3" d="M48.18,152.77c-4.73,0-8.68-2.55-11.46-4.36l-0.21-.14c-0.94-.61-3.23-0.48-5.44-0.36-3.54.2-7.2,0.4-7.47-2.16a1.61,1.61,0,0,1,.38-1.26c0.9-1,3.22-1.17,5.67-1.3s5.54-.29,5.58-1.62c0-.67-3.46-1.45-5.54-1.92-4.52-1-9.2-2.06-8.75-4.85a1.54,1.54,0,0,1,.65-1c1.4-1,4.75-.36,8.3.3,2,0.37,5.71,1.07,6,.48s-2.75-2.38-4.35-3.39c-3.83-2.42-8.18-5.17-7.24-7.86a1.3,1.3,0,0,1,.8-0.82c1.46-.53,4.3,1.06,8.45,3.56,2,1.22,5.1,3,5.69,2.82,0.21-.54-1.9-3.38-3.16-5.08-2.51-3.4-4.14-5.73-3.88-7.15a1.29,1.29,0,0,1,.58-0.88c2.21-1.41,5.85,1.26,11.46,8.42,4.11,5.24,6.69,6.36,7.77,6.59-1.8-6.07.57-8.94,2.18-10.13,1.78-1.31,4.17-1.67,5-1.1s0.33,1.27-.07,2.28a10.46,10.46,0,0,0,.33,9.7l0.11,0.21c1.6,3.11,5.84,11.36-1.77,17.38A15.15,15.15,0,0,1,48.18,152.77Zm-14.44-6a6.41,6.41,0,0,1,3.31.62l0.21,0.14c4.27,2.77,11.42,7.39,19.83.74,7-5.51,3.14-13,1.5-16.14L58.48,132a11.49,11.49,0,0,1-.36-10.53,4.21,4.21,0,0,0,.37-1.16,5.61,5.61,0,0,0-3.93,1.31c-1.66,1.33-3.26,4.07-1.42,9.55l0.17,0.51-0.52.14c-0.33.09-3.4,0.64-9.38-7-6.34-8.09-9-8.92-10.13-8.2a0.29,0.29,0,0,0-.14.22c-0.2,1.1,2,4,3.7,6.38,2.51,3.39,3.89,5.35,3.1,6.33s-2.94-.21-7-2.61c-2.73-1.64-6.47-3.88-7.6-3.47a0.3,0.3,0,0,0-.2.21c-0.68,1.94,3.66,4.68,6.83,6.69s5.31,3.35,4.73,4.64-2.93.87-7.07,0.09c-2.89-.54-6.48-1.21-7.54-0.47a0.54,0.54,0,0,0-.24.38c-0.3,1.87,4.29,2.89,8,3.72s6.38,1.43,6.32,2.93h0c-0.08,2.25-3.36,2.42-6.53,2.58-2,.1-4.35.22-5,0.95a0.62,0.62,0,0,0-.14.51c0.17,1.62,3.49,1.43,6.42,1.27C32,146.86,32.88,146.81,33.73,146.81Z" transform="translate(-11.4 -115.38)"/></svg>